<svg width="25" height="28" viewBox="0 0 25 28" fill="none" xmlns="http://www.w3.org/2000/svg">
<g clip-path="url(#clip0)">
<path fill-rule="evenodd" clip-rule="evenodd" d="M24.5 15.3475V12.5475L21.105 11.4275L20.3175 9.52L21.8575 6.3L19.88 4.3225L16.7125 5.915L14.805 5.1275L13.5975 1.7675H10.7975L9.695 5.1625L7.7525 5.95L4.5325 4.41L2.555 6.3875L4.1475 9.555L3.36 11.4625L0 12.6525V15.435L3.395 16.555L4.1825 18.4625L2.6425 21.6825L4.62 23.66L7.7875 22.0675L9.695 22.855L10.9025 26.215H13.685L14.7875 22.82L16.73 22.0325L19.95 23.5725L21.9275 21.595L20.3175 18.4275L21.14 16.52L24.5 15.3125V15.3475ZM12.25 19.25C9.345 19.25 7 16.905 7 14C7 11.095 9.345 8.75 12.25 8.75C15.155 8.75 17.5 11.095 17.5 14C17.5 16.905 15.155 19.25 12.25 19.25Z" fill="white"/>
</g>
<defs>
<clipPath id="clip0">
<rect width="24.5" height="28" fill="white"/>
</clipPath>
</defs>
</svg>
