<svg width="21" height="28" viewBox="0 0 21 28" fill="none" xmlns="http://www.w3.org/2000/svg">
<path fill-rule="evenodd" clip-rule="evenodd" d="M13.125 8.75L17.5 13.125L13.125 17.5L11.8125 16.1875L14.875 13.125L11.8125 10.0625L13.125 8.75ZM7.875 8.75L3.5 13.125L7.875 17.5L9.1875 16.1875L6.125 13.125L9.1875 10.0625L7.875 8.75ZM0 22.75V3.5C0 2.5375 0.7875 1.75 1.75 1.75H19.25C20.2125 1.75 21 2.5375 21 3.5V22.75C21 23.7125 20.2125 24.5 19.25 24.5H1.75C0.7875 24.5 0 23.7125 0 22.75ZM1.75 22.75H19.25V3.5H1.75V22.75Z" fill="white"/>
</svg>
